<svg width="33" height="30" viewBox="0 0 33 30" fill="none" xmlns="http://www.w3.org/2000/svg">
<path d="M11.1865 24.8818C11.8131 24.8819 12.4133 25.1292 12.8555 25.5684C13.2976 26.0075 13.5459 26.6029 13.5459 27.2227C13.5458 27.6847 13.4072 28.1368 13.1484 28.5215C12.8896 28.9062 12.5212 29.2063 12.0898 29.3838C11.6584 29.5612 11.1837 29.6081 10.7256 29.5176C10.2675 29.4271 9.84731 29.2034 9.51758 28.876C9.18795 28.5486 8.96292 28.132 8.87207 27.6787C8.78127 27.2253 8.82865 26.7544 9.00684 26.3271C9.18506 25.9001 9.48714 25.5348 9.875 25.2773C10.263 25.0199 10.7193 24.8818 11.1865 24.8818ZM25.7285 24.8818C26.3552 24.8818 26.9562 25.1291 27.3984 25.5684C27.8404 26.0075 28.0879 26.603 28.0879 27.2227C28.0878 27.6847 27.9502 28.1368 27.6914 28.5215C27.4326 28.9062 27.0641 29.2063 26.6328 29.3838C26.2014 29.5613 25.7258 29.6081 25.2676 29.5176C24.8095 29.427 24.3893 29.2034 24.0596 28.876C23.73 28.5486 23.5059 28.1319 23.415 27.6787C23.3242 27.2253 23.3706 26.7544 23.5488 26.3271C23.727 25.9 24.0291 25.5348 24.417 25.2773C24.805 25.0198 25.2613 24.8819 25.7285 24.8818ZM1.67773 0.4375H3.46875L3.66113 0.445312C4.10613 0.482535 4.53253 0.644704 4.89062 0.913086C5.24859 1.18141 5.5211 1.54368 5.67871 1.95703L5.73926 2.1377L6.75879 5.67676L6.84961 5.99316H31.3223C31.5167 5.9932 31.7085 6.03814 31.8818 6.125C32.0553 6.21193 32.2052 6.33846 32.3203 6.49316C32.4354 6.64793 32.5125 6.8274 32.5449 7.0166C32.5773 7.20569 32.5646 7.39961 32.5078 7.58301L28.6924 19.9023L28.6914 19.9043C28.4754 20.6103 28.036 21.2289 27.4375 21.668C26.8388 22.1071 26.1131 22.3436 25.3682 22.3408H11.5977C10.8412 22.3384 10.1063 22.0917 9.50293 21.6396C8.89991 21.1879 8.45988 20.5554 8.25 19.8359H8.25098L3.46973 3.21289L3.37891 2.89551H1.67773C1.34794 2.89545 1.03216 2.76584 0.799805 2.53516C0.56755 2.30446 0.437587 1.99195 0.4375 1.66699C0.4375 1.34198 0.567549 1.02958 0.799805 0.798828C1.03218 0.568013 1.34784 0.437559 1.67773 0.4375ZM7.7168 9.00977L10.6377 19.1621V19.1631C10.6977 19.371 10.8241 19.5532 10.9971 19.6826C11.1699 19.812 11.38 19.8819 11.5957 19.8818L25.3662 19.8809C25.5785 19.8812 25.7855 19.8148 25.957 19.6895C26.1288 19.5638 26.256 19.3861 26.3193 19.1826H26.3203L29.4678 9.01855L29.6426 8.45117H7.55566L7.7168 9.00977Z" fill="white" stroke="white" stroke-width="0.874744"/>
</svg>
