<svg width="18" height="16" viewBox="0 0 18 16" fill="none" xmlns="http://www.w3.org/2000/svg">
<path d="M4.625 2.39375C4.625 1.07187 5.69688 0 7.01875 0C7.65313 0 8.2625 0.253125 8.70938 0.7L9 0.990625L9.29062 0.7C9.7375 0.253125 10.3469 0 10.9812 0C12.3031 0 13.375 1.07187 13.375 2.39375C13.375 3.02812 13.1219 3.6375 12.675 4.08437L9.44063 7.31563C9.19688 7.55938 8.8 7.55938 8.55625 7.31563L5.325 4.08437C4.87812 3.6375 4.625 3.02812 4.625 2.39375ZM17.7563 10.5094C18.1656 11.0656 18.0469 11.8469 17.4906 12.2563L13.5344 15.1719C12.8031 15.7094 11.9219 16 11.0125 16H6H1C0.446875 16 0 15.5531 0 15V13C0 12.4469 0.446875 12 1 12H2.15L3.55312 10.875C4.2625 10.3062 5.14375 10 6.05312 10H8.5H9H11C11.5531 10 12 10.4469 12 11C12 11.5531 11.5531 12 11 12H9H8.5C8.225 12 8 12.225 8 12.5C8 12.775 8.225 13 8.5 13H12.2688L16.0094 10.2437C16.5656 9.83437 17.3469 9.95312 17.7563 10.5094ZM6.05 12H6.02187C6.03125 12 6.04063 12 6.05 12Z" fill="#008080"/>
</svg>
