<svg width="13" height="19" viewBox="0 0 13 19" fill="none" xmlns="http://www.w3.org/2000/svg">
<path d="M1.87891 8.875C1.875 8.98047 1.875 9.08203 1.875 9.1875V9.8125C1.875 9.91797 1.875 10.0195 1.87891 10.125H1.25C0.558594 10.125 0 10.6836 0 11.375C0 12.0664 0.558594 12.625 1.25 12.625H2.35547C3.51172 15.9023 6.64062 18.25 10.3125 18.25H11.25C11.9414 18.25 12.5 17.6914 12.5 17C12.5 16.3086 11.9414 15.75 11.25 15.75H10.3125C8.05078 15.75 6.08594 14.4844 5.08203 12.625H10C10.6914 12.625 11.25 12.0664 11.25 11.375C11.25 10.6836 10.6914 10.125 10 10.125H4.38281C4.37891 10.0234 4.375 9.91797 4.375 9.8125V9.1875C4.375 9.08203 4.37891 8.97656 4.38281 8.875H10C10.6914 8.875 11.25 8.31641 11.25 7.625C11.25 6.93359 10.6914 6.375 10 6.375H5.08203C6.08594 4.51562 8.05078 3.25 10.3125 3.25H11.25C11.9414 3.25 12.5 2.69141 12.5 2C12.5 1.30859 11.9414 0.75 11.25 0.75H10.3125C6.64062 0.75 3.51172 3.09766 2.35547 6.375H1.25C0.558594 6.375 0 6.93359 0 7.625C0 8.31641 0.558594 8.875 1.25 8.875H1.87891Z" fill="#008080"/>
</svg>
