<svg width="24" height="22" viewBox="0 0 24 22" fill="none" xmlns="http://www.w3.org/2000/svg">
<path d="M2.23125 13.082L10.7016 20.9898C11.0531 21.3179 11.5172 21.5007 12 21.5007C12.4828 21.5007 12.9469 21.3179 13.2984 20.9898L21.7687 13.082C23.1938 11.7554 24 9.89449 24 7.94918V7.6773C24 4.40074 21.6328 1.60699 18.4031 1.06793C16.2656 0.711677 14.0906 1.41011 12.5625 2.93824L12 3.50074L11.4375 2.93824C9.90938 1.41011 7.73438 0.711677 5.59688 1.06793C2.36719 1.60699 0 4.40074 0 7.6773V7.94918C0 9.89449 0.80625 11.7554 2.23125 13.082Z" fill="white"/>
</svg>
