<svg width="20" height="21" viewBox="0 0 20 21" fill="none" xmlns="http://www.w3.org/2000/svg">
<path d="M6.11723 15.5342L4.91019 14.3272C4.57816 13.9951 4.46098 13.5147 4.60941 13.0694C4.7266 12.7217 4.88285 12.2686 5.07035 11.749H0.937538C0.6016 11.749 0.2891 11.5694 0.121132 11.2764C-0.0468371 10.9834 -0.0429309 10.624 0.128944 10.335L2.17973 6.87795C2.68754 6.02248 3.60551 5.49905 4.59769 5.49905H7.81254C7.90629 5.3428 8.00004 5.19826 8.09379 5.05764C11.293 0.338889 16.0586 0.18264 18.9024 0.706077C19.3555 0.788108 19.7071 1.14358 19.793 1.5967C20.3164 4.44436 20.1563 9.20608 15.4414 12.4053C15.3047 12.499 15.1563 12.5928 15 12.6865V15.9014C15 16.8936 14.4766 17.8155 13.6211 18.3194L10.1641 20.3701C9.87504 20.542 9.51566 20.5459 9.22269 20.378C8.92973 20.21 8.75004 19.9014 8.75004 19.5615V15.374C8.19926 15.5655 7.71879 15.7217 7.35551 15.8389C6.91801 15.9795 6.44144 15.8584 6.11332 15.5342H6.11723ZM15 7.06155C15.4144 7.06155 15.8119 6.89693 16.1049 6.6039C16.3979 6.31087 16.5625 5.91345 16.5625 5.49905C16.5625 5.08464 16.3979 4.68722 16.1049 4.39419C15.8119 4.10117 15.4144 3.93655 15 3.93655C14.5856 3.93655 14.1882 4.10117 13.8952 4.39419C13.6022 4.68722 13.4375 5.08464 13.4375 5.49905C13.4375 5.91345 13.6022 6.31087 13.8952 6.6039C14.1882 6.89693 14.5856 7.06155 15 7.06155Z" fill="#008080"/>
</svg>
