<svg width="12" height="16" viewBox="0 0 12 16" fill="none" xmlns="http://www.w3.org/2000/svg">
<path d="M0.5 2C0.5 0.896875 1.39688 0 2.5 0H9.5C10.6031 0 11.5 0.896875 11.5 2V14C11.5 15.1031 10.6031 16 9.5 16H2.5C1.39688 16 0.5 15.1031 0.5 14V2ZM7 14C7 13.7348 6.89464 13.4804 6.70711 13.2929C6.51957 13.1054 6.26522 13 6 13C5.73478 13 5.48043 13.1054 5.29289 13.2929C5.10536 13.4804 5 13.7348 5 14C5 14.2652 5.10536 14.5196 5.29289 14.7071C5.48043 14.8946 5.73478 15 6 15C6.26522 15 6.51957 14.8946 6.70711 14.7071C6.89464 14.5196 7 14.2652 7 14ZM9.5 2H2.5V12H9.5V2Z" fill="white"/>
</svg>
