<svg width="26" height="24" viewBox="0 0 26 24" fill="none" xmlns="http://www.w3.org/2000/svg">
<path d="M25.1688 4.86563L22.4828 0.614063C22.2438 0.234375 21.8172 0 21.3625 0H4.63752C4.18283 0 3.75627 0.234375 3.51721 0.614063L0.826581 4.86563C-0.560919 7.05938 0.667206 10.1109 3.25939 10.4625C3.44689 10.4859 3.63908 10.5 3.82658 10.5C5.05002 10.5 6.13752 9.96562 6.88283 9.14062C7.62814 9.96562 8.71564 10.5 9.93908 10.5C11.1625 10.5 12.25 9.96562 12.9953 9.14062C13.7406 9.96562 14.8281 10.5 16.0516 10.5C17.2797 10.5 18.3625 9.96562 19.1078 9.14062C19.8578 9.96562 20.9406 10.5 22.1641 10.5C22.3563 10.5 22.5438 10.4859 22.7313 10.4625C25.3328 10.1156 26.5656 7.06406 25.1735 4.86563H25.1688ZM22.9235 11.9484H22.9188C22.6703 11.9812 22.4172 12 22.1594 12C21.5781 12 21.0203 11.9109 20.5 11.7516V18H5.50002V11.7469C4.97502 11.9109 4.41252 12 3.83127 12C3.57346 12 3.31564 11.9812 3.06721 11.9484H3.06252C2.87033 11.9203 2.68283 11.8875 2.50002 11.8406V18V21C2.50002 22.6547 3.84533 24 5.50002 24H20.5C22.1547 24 23.5 22.6547 23.5 21V18V11.8406C23.3125 11.8875 23.125 11.925 22.9235 11.9484Z" fill="white"/>
</svg>
