<svg width="16" height="14" viewBox="0 0 16 14" fill="none" xmlns="http://www.w3.org/2000/svg">
<path d="M14.3553 3.74052C14.3655 3.88264 14.3655 4.0248 14.3655 4.16692C14.3655 8.50192 11.066 13.4969 5.03553 13.4969C3.17766 13.4969 1.45178 12.9588 0 12.0248C0.263969 12.0552 0.51775 12.0654 0.791875 12.0654C2.32484 12.0654 3.73603 11.5476 4.86294 10.6644C3.42131 10.6339 2.21319 9.68977 1.79694 8.39027C2 8.4207 2.20303 8.44102 2.41625 8.44102C2.71066 8.44102 3.00509 8.40039 3.27919 8.32936C1.77666 8.02477 0.649719 6.70498 0.649719 5.11108V5.07048C1.08625 5.31414 1.59391 5.46642 2.13194 5.4867C1.24869 4.89786 0.670031 3.8928 0.670031 2.75573C0.670031 2.14661 0.832438 1.58823 1.11672 1.10092C2.73094 3.09077 5.15734 4.39023 7.87813 4.53239C7.82738 4.28873 7.79691 4.03495 7.79691 3.78114C7.79691 1.97402 9.25884 0.501953 11.0761 0.501953C12.0203 0.501953 12.873 0.897891 13.472 1.53748C14.2131 1.39536 14.9238 1.12123 15.5533 0.745609C15.3096 1.50705 14.7918 2.14664 14.1116 2.5527C14.7715 2.48167 15.4111 2.29889 15.9999 2.04511C15.5533 2.69483 14.9949 3.27348 14.3553 3.74052Z" fill="white"/>
</svg>
