<svg width="30" height="30" viewBox="0 0 30 30" fill="none" xmlns="http://www.w3.org/2000/svg">
<path d="M15 1C22.7319 1 29 7.26801 29 15C29 22.7319 22.7319 29 15 29C7.26801 29 1 22.7319 1 15C1 7.26801 7.26801 1 15 1Z" stroke="white" stroke-width="2" stroke-linecap="round" stroke-linejoin="round"/>
<mask id="path-2-inside-1_1_8" fill="white">
<path d="M3.40637 24.5185C3.40637 24.5185 6.7499 20.25 14.9999 20.25C23.2499 20.25 26.5935 24.5185 26.5935 24.5185"/>
</mask>
<path d="M1.83189 23.2853C1.15076 24.1548 1.30352 25.4119 2.17309 26.093C3.04265 26.7742 4.29973 26.6214 4.98086 25.7518L3.40637 24.5185L1.83189 23.2853ZM25.0191 25.7519C25.7002 26.6214 26.9573 26.7742 27.8268 26.093C28.6964 25.4119 28.8491 24.1548 28.168 23.2852L26.5935 24.5185L25.0191 25.7519ZM3.40637 24.5185C4.98086 25.7518 4.98015 25.7527 4.97945 25.7536C4.97924 25.7539 4.97855 25.7548 4.97812 25.7553C4.97725 25.7564 4.97643 25.7575 4.97566 25.7584C4.97412 25.7604 4.97277 25.7621 4.97161 25.7635C4.96929 25.7664 4.96773 25.7684 4.96695 25.7693C4.96538 25.7712 4.9669 25.7694 4.97153 25.7639C4.9808 25.7529 5.00252 25.7278 5.03703 25.6903C5.10608 25.6154 5.22597 25.4917 5.39943 25.3348C5.74632 25.0209 6.30624 24.5754 7.10181 24.1207C8.68015 23.2186 11.2382 22.25 14.9999 22.25V20.25V18.25C10.5116 18.25 7.27288 19.4157 5.11696 20.6479C4.0454 21.2603 3.25381 21.8819 2.71598 22.3684C2.44707 22.6117 2.2413 22.8215 2.09528 22.9799C2.02224 23.0592 1.96407 23.1257 1.92034 23.1773C1.89847 23.2031 1.8802 23.2252 1.86548 23.2433C1.85812 23.2523 1.85164 23.2604 1.84605 23.2674C1.84325 23.2709 1.84067 23.2741 1.83831 23.2771C1.83713 23.2786 1.83601 23.28 1.83493 23.2814C1.8344 23.2821 1.83364 23.283 1.83337 23.2834C1.83262 23.2843 1.83189 23.2853 3.40637 24.5185ZM14.9999 20.25V22.25C18.7616 22.25 21.3197 23.2186 22.898 24.1207C23.6936 24.5754 24.2536 25.021 24.6005 25.3348C24.7739 25.4917 24.8938 25.6154 24.9629 25.6903C24.9974 25.7278 25.0191 25.753 25.0284 25.7639C25.033 25.7694 25.0345 25.7713 25.033 25.7694C25.0322 25.7684 25.0306 25.7665 25.0283 25.7636C25.0271 25.7621 25.0258 25.7604 25.0243 25.7585C25.0235 25.7575 25.0227 25.7565 25.0218 25.7554C25.0214 25.7548 25.0207 25.7539 25.0205 25.7537C25.0198 25.7528 25.0191 25.7519 26.5935 24.5185C28.168 23.2852 28.1673 23.2843 28.1665 23.2833C28.1662 23.283 28.1655 23.282 28.1649 23.2814C28.1639 23.28 28.1627 23.2786 28.1616 23.2771C28.1592 23.2741 28.1566 23.2708 28.1538 23.2673C28.1482 23.2603 28.1418 23.2523 28.1344 23.2433C28.1197 23.2252 28.1014 23.2031 28.0795 23.1773C28.0358 23.1257 27.9776 23.0592 27.9046 22.9799C27.7586 22.8214 27.5528 22.6117 27.2839 22.3684C26.746 21.8819 25.9544 21.2603 24.8829 20.6479C22.7269 19.4157 19.4881 18.25 14.9999 18.25V20.25Z" fill="white" mask="url(#path-2-inside-1_1_8)"/>
<path d="M14.9999 7C16.9329 7 18.4999 8.567 18.4999 10.5C18.4999 12.4331 16.9329 14 14.9999 14C13.0668 14 11.4999 12.4331 11.4999 10.5C11.4999 8.567 13.0668 7 14.9999 7Z" stroke="white" stroke-width="2" stroke-linecap="round" stroke-linejoin="round"/>
</svg>
